<svg xmlns="http://www.w3.org/2000/svg" viewBox="0 0 99.15 99.15"><defs><style>.cls-1{fill:#00468b;}</style></defs><g id="Layer_2" data-name="Layer 2"><g id="Layer_1-2" data-name="Layer 1"><path class="cls-1" d="M56.74,77.39V22.68c0-4.36-1.55-5.83-5.79-5.83H38.15V23h.76c2.93,0,3.49.66,3.49,4.18V77.39Zm6.31,0H77.28V34.78c0-4.28-1.65-5.82-5.82-5.82H63.05Zm-26.93,0V29H27.7c-4.17,0-5.81,1.54-5.81,5.82V77.39ZM90.73,49.58c0,24.11-17.33,41.64-41.15,41.64S8.43,73.69,8.43,49.58,25.76,7.94,49.58,7.94,90.73,25.57,90.73,49.58m8.42,0C99.15,21.23,78,0,49.58,0S0,21.23,0,49.58,21.2,99.15,49.58,99.15,99.15,78,99.15,49.58"/></g></g></svg>